# xmcd
#
# Track frame offsets:
#	150
#	14887
#	31641
#	52564
#	57657
#	77288
#	113897
#	130337
#	143816
#
# Disc length: 2178 seconds
#
# Revision: 0
# Processed by: cddbd v1.5.2PL0 Copyright (c) Steve Scherf et al.
# Submitted via: EasyCDDAExtractor 11.1.0.1
#
DISCID=6e088009
DTITLE=Blodwyn Pig - Getting To This
DYEAR=1970
DGENRE=Classic Rock
TTITLE0=Drive Me
TTITLE1=Variations On Nainos
TTITLE2=Meanie Monie
TTITLE3=Long Bomb Blues
TTITLE4=The Squirreling Must Go On
TTITLE5=San Francisco Sketches
TTITLE6=Worry
TTITLE7=Toys
TTITLE8=Send Your Son To Die
EXTD=
EXTT0=
EXTT1=
EXTT2=
EXTT3=
EXTT4=
EXTT5=
EXTT6=
EXTT7=
EXTT8=
PLAYORDER=
